<svg xmlns="http://www.w3.org/2000/svg" version="1.1" xmlns:xlink="http://www.w3.org/1999/xlink" xmlns:svgjs="http://svgjs.dev/svgjs" width="2000" height="1500" viewBox="0 0 2000 1500"><rect width="2000" height="1500" fill="#f9f9f9"></rect><g transform="matrix(0.75,0,0,0.75,249.09090909090912,282.7536437246963)"><svg viewBox="0 0 396 247" data-background-color="#f9f9f9" preserveAspectRatio="xMidYMid meet" height="1247" width="2000" xmlns="http://www.w3.org/2000/svg" xmlns:xlink="http://www.w3.org/1999/xlink"><g id="tight-bounds" transform="matrix(1,0,0,1,0.2400000000000091,-0.09999999999999432)"><svg viewBox="0 0 395.52 247.2" height="247.2" width="395.52"><g><svg></svg></g><g><svg viewBox="0 0 395.52 247.2" height="247.2" width="395.52"><g transform="matrix(1,0,0,1,75.54432,53.09840329635499)"><svg viewBox="0 0 244.43135999999998 141.00319340729" height="141.00319340729" width="244.43135999999998"><g><svg viewBox="0 0 244.43135999999998 141.00319340729" height="141.00319340729" width="244.43135999999998"><g><svg viewBox="0 0 244.43135999999998 141.00319340729" height="141.00319340729" width="244.43135999999998"><g><svg viewBox="0 0 244.43135999999998 141.00319340729" height="141.00319340729" width="244.43135999999998"><g id="textblocktransform"><svg viewBox="0 0 244.43135999999998 141.00319340729" height="141.00319340729" width="244.43135999999998" id="textblock"><g><svg viewBox="0 0 244.43135999999998 141.00319340729" height="141.00319340729" width="244.43135999999998"><g transform="matrix(1,0,0,1,0,0)"><svg width="244.43135999999998" viewBox="1.5 -35.7 63.099999999999994 36.400000000000006" height="141.00319340729" data-palette-color="#030303"><path d="M1.5-2.4L1.5-2.4 2.2-8.9 3.9-8.8Q3.9-6.05 7.18-4.38 10.45-2.7 14.63-2.7 18.8-2.7 20.9-3.98 23-5.25 23-7.2L23-7.2Q23-10.5 19.5-13.1L19.5-13.1Q18.05-14.15 16.45-14.95L16.45-14.95Q12.8-16.85 11.88-17.38 10.95-17.9 9.8-18.45 8.65-19 7.68-19.63 6.7-20.25 5.6-21.15L5.6-21.15Q3.1-23.15 3.1-25.63 3.1-28.1 3.98-29.95 4.85-31.8 6.18-32.85 7.5-33.9 9.3-34.6L9.3-34.6Q12.35-35.7 16.13-35.7 19.9-35.7 23.4-33.8L23.4-33.8 22.8-28 21.1-28Q21.1-32.7 13.2-32.7L13.2-32.7Q9.55-32.7 7.73-31.55 5.9-30.4 5.9-28.4L5.9-28.4Q5.9-25.2 16.3-20.7L16.3-20.7Q23.15-17.75 25.05-14.15L25.05-14.15Q26-12.35 26-10.2L26-10.2Q26-5 21.83-2.15 17.65 0.7 11.75 0.7 5.85 0.7 1.5-2.4ZM46.2-32.2L37.9-31.7 37.9-4.5Q40.8-2.8 45.8-2.8L45.8-2.8Q51.75-2.8 56.3-6.05L56.3-6.05Q58.6-7.7 59.95-10.65 61.3-13.6 61.3-17.32 61.3-21.05 59.82-23.95 58.35-26.85 56-28.6L56-28.6Q51.25-32.2 46.2-32.2L46.2-32.2ZM29.5-35L37.2-35 49.6-35.5Q56.55-35.5 60.57-31 64.6-26.5 64.6-18.98 64.6-11.45 58.82-5.73 53.05 0 45.3 0L45.3 0 29.5 0 29.5-1.5 31.2-1.5Q32.7-1.5 33.15-2.05 33.6-2.6 33.6-3.7L33.6-3.7 33.6-31.3Q33.6-32.45 33.12-32.98 32.65-33.5 31.2-33.5L31.2-33.5 29.5-33.5 29.5-35Z" opacity="1" transform="matrix(1,0,0,1,0,0)" fill="#030303" class="wordmark-text-0" data-fill-palette-color="primary" id="text-0"></path></svg></g></svg></g></svg></g></svg></g></svg></g></svg></g></svg></g><g><path d="M0 123.6c0-68.262 55.338-123.6 123.6-123.6 34.26 0 65.264 13.939 87.651 36.455l-9.219 0c-20.774-18.709-48.274-30.097-78.432-30.097-64.751 0-117.242 52.491-117.242 117.242 0 64.751 52.491 117.242 117.242 117.242 30.159 0 57.658-11.387 78.432-30.097l9.219 0c-22.387 22.516-53.391 36.455-87.651 36.455-68.262 0-123.6-55.338-123.6-123.6z" fill="#030303" stroke="transparent" data-fill-palette-color="tertiary"></path></g></svg></g><defs></defs></svg><rect width="395.52" height="247.2" fill="none" stroke="none" visibility="hidden"></rect></g></svg></g></svg>